<svg width="35" height="33" viewBox="0 0 35 33" fill="none" xmlns="http://www.w3.org/2000/svg">
<path d="M32.9582 1L19.8241 10.9544L22.2864 5.52209L32.9582 1Z" fill="#E17726" stroke="#E17726" stroke-width="0.25" stroke-linecap="round" stroke-linejoin="round"/>
<path d="M2.66699 1L15.6712 11.0368L13.3391 5.52209L2.66699 1Z" fill="#E27625" stroke="#E27625" stroke-width="0.25" stroke-linecap="round" stroke-linejoin="round"/>
<path d="M28.2285 23.5334L24.7109 28.872L32.2455 30.9333L34.3949 23.6391L28.2285 23.5334Z" fill="#E27625" stroke="#E27625" stroke-width="0.25" stroke-linecap="round" stroke-linejoin="round"/>
<path d="M1.24951 23.6391L3.38229 30.9333L10.9169 28.872L7.39932 23.5334L1.24951 23.6391Z" fill="#E27625" stroke="#E27625" stroke-width="0.25" stroke-linecap="round" stroke-linejoin="round"/>
<path d="M10.5007 14.5149L8.39111 17.6095L15.8391 17.9265L15.5877 10.0825L10.5007 14.5149Z" fill="#E27625" stroke="#E27625" stroke-width="0.25" stroke-linecap="round" stroke-linejoin="round"/>
<path d="M25.1174 14.515L19.9372 10L19.7791 17.9265L27.2271 17.6095L25.1174 14.515Z" fill="#E27625" stroke="#E27625" stroke-width="0.25" stroke-linecap="round" stroke-linejoin="round"/>
<path d="M10.917 28.872L15.3795 26.7052L11.5105 23.692L10.917 28.872Z" fill="#E27625" stroke="#E27625" stroke-width="0.25" stroke-linecap="round" stroke-linejoin="round"/>
<path d="M20.2383 26.7052L24.7109 28.872L24.1074 23.692L20.2383 26.7052Z" fill="#E27625" stroke="#E27625" stroke-width="0.25" stroke-linecap="round" stroke-linejoin="round"/>
<path d="M24.7109 28.8722L20.2383 26.7054L20.6077 29.5677L20.5646 30.8278L24.7109 28.8722Z" fill="#D5BFB2" stroke="#D5BFB2" stroke-width="0.25" stroke-linecap="round" stroke-linejoin="round"/>
<path d="M10.917 28.8722L15.0633 30.8278L15.0333 29.5677L15.3796 26.7054L10.917 28.8722Z" fill="#D5BFB2" stroke="#D5BFB2" stroke-width="0.25" stroke-linecap="round" stroke-linejoin="round"/>
<path d="M15.1395 21.7842L11.4043 20.7232L14.0247 19.5156L15.1395 21.7842Z" fill="#233447" stroke="#233447" stroke-width="0.25" stroke-linecap="round" stroke-linejoin="round"/>
<path d="M20.4785 21.7842L21.5934 19.5156L24.2269 20.7232L20.4785 21.7842Z" fill="#233447" stroke="#233447" stroke-width="0.25" stroke-linecap="round" stroke-linejoin="round"/>
<path d="M10.917 28.872L11.5336 23.5334L7.39941 23.6391L10.917 28.872Z" fill="#CC6228" stroke="#CC6228" stroke-width="0.25" stroke-linecap="round" stroke-linejoin="round"/>
<path d="M24.0845 23.5334L24.7011 28.872L28.2187 23.6391L24.0845 23.5334Z" fill="#CC6228" stroke="#CC6228" stroke-width="0.25" stroke-linecap="round" stroke-linejoin="round"/>
<path d="M27.2271 17.6096L19.7791 17.9266L20.4788 21.7844L21.5937 19.5158L24.2272 20.7234L27.2271 17.6096Z" fill="#CC6228" stroke="#CC6228" stroke-width="0.25" stroke-linecap="round" stroke-linejoin="round"/>
<path d="M11.4044 20.7234L14.0248 19.5158L15.1397 21.7844L15.8394 17.9266L8.39136 17.6096L11.4044 20.7234Z" fill="#CC6228" stroke="#CC6228" stroke-width="0.25" stroke-linecap="round" stroke-linejoin="round"/>
<path d="M8.39111 17.6096L11.5105 23.6921L11.4042 20.7234L8.39111 17.6096Z" fill="#E27525" stroke="#E27525" stroke-width="0.25" stroke-linecap="round" stroke-linejoin="round"/>
<path d="M24.2272 20.7234L24.1077 23.6921L27.2271 17.6096L24.2272 20.7234Z" fill="#E27525" stroke="#E27525" stroke-width="0.25" stroke-linecap="round" stroke-linejoin="round"/>
<path d="M15.8391 17.9266L15.1394 21.7844L16.0274 26.2167L16.2086 20.4064L15.8391 17.9266Z" fill="#E27525" stroke="#E27525" stroke-width="0.25" stroke-linecap="round" stroke-linejoin="round"/>
<path d="M19.7789 17.9266L19.4224 20.3932L19.5906 26.2167L20.4786 21.7844L19.7789 17.9266Z" fill="#E27525" stroke="#E27525" stroke-width="0.25" stroke-linecap="round" stroke-linejoin="round"/>
<path d="M20.4788 21.7842L19.5908 26.2165L20.2384 26.7051L24.1075 23.6919L24.227 20.7231L20.4788 21.7842Z" fill="#F5841F" stroke="#F5841F" stroke-width="0.25" stroke-linecap="round" stroke-linejoin="round"/>
<path d="M11.4043 20.7231L11.5106 23.6919L15.3797 26.7051L16.0273 26.2165L15.1393 21.7842L11.4043 20.7231Z" fill="#F5841F" stroke="#F5841F" stroke-width="0.25" stroke-linecap="round" stroke-linejoin="round"/>
<path d="M20.5645 30.8276L20.6076 29.5675L20.2612 29.2768H15.3569L15.0334 29.5675L15.0634 30.8276L10.917 28.872L12.4313 30.1321L15.2999 32H20.3181L23.1867 30.1321L24.701 28.872L20.5645 30.8276Z" fill="#C0AC9D" stroke="#C0AC9D" stroke-width="0.25" stroke-linecap="round" stroke-linejoin="round"/>
<path d="M20.2384 26.7052L19.5908 26.2166H16.0273L15.3797 26.7052L15.0332 29.5676L15.3567 29.2769H20.261L20.6075 29.5676L20.2384 26.7052Z" fill="#161616" stroke="#161616" stroke-width="0.25" stroke-linecap="round" stroke-linejoin="round"/>
<path d="M33.5951 11.3275L34.7 6.15599L32.9582 1L20.2383 10.4526L25.1173 14.5151L32.0503 16.5236L33.5846 14.7815L32.9281 14.3061L33.9967 13.3556L33.1952 12.7454L34.2638 11.9444L33.5951 11.3275Z" fill="#763E1A" stroke="#763E1A" stroke-width="0.25" stroke-linecap="round" stroke-linejoin="round"/>
<path d="M1 6.15599L2.11804 11.3275L1.42609 11.9444L2.49469 12.7454L1.69326 13.3556L2.76187 14.3061L2.10531 14.7815L3.63965 16.5236L10.5727 14.5151L15.4516 10.4526L2.73176 1L1 6.15599Z" fill="#763E1A" stroke="#763E1A" stroke-width="0.25" stroke-linecap="round" stroke-linejoin="round"/>
<path d="M32.0504 16.5235L25.1174 14.5149L27.2271 17.6095L24.1077 23.692L28.2288 23.6391H34.3953L32.0504 16.5235Z" fill="#F5841F" stroke="#F5841F" stroke-width="0.25" stroke-linecap="round" stroke-linejoin="round"/>
<path d="M10.5007 14.5149L3.56772 16.5235L1.24951 23.6391H7.39932L11.5105 23.692L8.39111 17.6095L10.5007 14.5149Z" fill="#F5841F" stroke="#F5841F" stroke-width="0.25" stroke-linecap="round" stroke-linejoin="round"/>
<path d="M19.779 17.9264L20.2383 10.4525L22.2867 5.52197H13.3391L15.3875 10.4525L15.8391 17.9264L16.0142 20.4195L16.0273 26.2165H19.5908L19.6039 20.4195L19.779 17.9264Z" fill="#F5841F" stroke="#F5841F" stroke-width="0.25" stroke-linecap="round" stroke-linejoin="round"/>
</svg>